<svg id="full" height="36" viewBox="0 0 242 36" width="242" xmlns="http://www.w3.org/2000/svg" xmlns:xlink="http://www.w3.org/1999/xlink">
<mask id="a" fill="#fff"><path d="m.2288316.37040021h34.5448439v35.02090409h-34.5448439z" fill="#fff" fill-rule="evenodd"/></mask><mask id="b" fill="#fff"><path d="m.38669347.18088409h29.38482973v33.67396291h-29.38482973z" fill="#fff" fill-rule="evenodd"/></mask><mask id="c" fill="#fff"><path d="m0 35.3913043h241.360927v-35.02099041h-241.360927z" fill="#fff" fill-rule="evenodd"/></mask><g fill="#e42d88" fill-rule="evenodd"><path d="m74 14.9562938h9.7967727v20.0437062h14.4596198v-20.0437062h9.7436075v-13.9562938h-34z"/><path d="m17.5012535.37040021c-9.60922417 0-17.2724219 7.76882291-17.2724219 17.51049519 0 9.6182344 7.78453169 17.5104953 17.2724219 17.5104953 9.4878903 0 17.272422-7.7688229 17.272422-17.5104953 0-9.61823432-7.6631977-17.51049519-17.272422-17.51049519" mask="url(#a)" transform="translate(37.038789)"/><path d="m19.6621476 10.6470423h-6.0675497v-9.56514739h-13.59451275v33.59756949h13.59451275v-10.2483722h6.0675497v10.2483722h13.5949385v-33.59756949h-13.5949385z"/><path d="m29.7716509 10.2622266v-10.08134251h-29.38495743v33.67396291h29.38495743v-10.5487667h-15.8717597v-2.1126883h12.4114002v-8.8180456h-12.4114002v-2.1131198z" mask="url(#b)" transform="translate(211.589404 .863203)"/><path d="m112.461173 34.7178769 14.33316-14.5307201v14.5307201l33.216131-33.6739629h-47.549291z"/><path d="m207.18017 12.3062039c0-6.16283455-4.897635-11.16120888-10.961353-11.22594907v-.03625451h-13.921901v33.67396288h27.341012l-10.489215-11.6282015c4.634532-1.3427115 8.031457-5.6539767 8.031457-10.7835578"/><path d="m162.057048 34.7180064h15.829187v-33.67396292h-15.829187z" mask="url(#c)"/></g>
</svg>